<?xml version="1.0" encoding="utf-8"?>
<svg version="1.1" xmlns:xlink="http://www.w3.org/1999/xlink" width="14px" height="14px" xmlns="http://www.w3.org/2000/svg">
  <g transform="matrix(1 0 0 1 -634 -512 )">
    <path d="M 5.3295444198751305 7  L 7 8.6704821366632  L 8.670451786333686 7  L 7 5.329578563995837  L 5.3295444198751305 7  Z M 7 2.640964273326396  L 8.35227410683316 3.9932535553243147  L 9.67272589316684 2.672771418661117  L 7 0  L 4.3272703130419705 2.672771418661117  L 5.64772589316684 3.9932535553243147  L 7 2.640964273326396  Z M 10.0068147329171 8.352289281997919  L 11.32727410683316 9.672771418661117  L 14 7  L 11.32727410683316 4.327289281997919  L 10.0068147329171 5.647771418661117  L 11.35908883975026 7  L 10.0068147329171 8.352289281997919  Z M 0 7  L 2.67272589316684 9.672771418661117  L 3.9931776795005205 8.352289281997919  L 2.640907366458557 7  L 3.9931776795005205 5.647771418661117  L 2.67272589316684 4.327289281997919  L 0 7  Z M 4.3272703130419705 11.327289281997919  L 7 14  L 9.67272589316684 11.327289281997919  L 8.35227410683316 10.006867845993757  L 7 11.359157127991676  L 5.64772589316684 10.006867845993757  L 4.3272703130419705 11.327289281997919  Z " fill-rule="nonzero" fill="#005ea2" stroke="none" transform="matrix(1 0 0 1 634 512 )" />
  </g>
</svg>