<?xml version="1.0" encoding="utf-8"?>
<svg version="1.1" xmlns:xlink="http://www.w3.org/1999/xlink" width="13px" height="16px" xmlns="http://www.w3.org/2000/svg">
  <g transform="matrix(1 0 0 1 -383 -99 )">
    <path d="M 12.692099425683853 13.490940709233191  C 12.486842202231164 13.709147024494943  12.247360702399249 13.818187515177152  11.97368440446233 13.818187515177152  C 11.97368440446233 13.818187515177152  3.0789467866130087 13.818187515177152  3.0789467866130087 13.818187515177152  C 2.8052631191075337 13.818187515177152  2.5657889888441736 13.709147024494943  2.3605243958229285 13.490940709233191  C 2.1552598028016834 13.27273439397144  2.052631191075339 13.018181248482286  2.052631191075339 12.727281272765728  C 2.052631191075339 12.727281272765728  2.052631191075339 1.0909062424114242  2.052631191075339 1.0909062424114242  C 2.052631191075339 0.8000062666948667  2.1552598028016834 0.5454531212057121  2.3605243958229285 0.3272468059439601  C 2.5657889888441736 0.10916582457954394  2.8052631191075337 0  3.0789467866130087 0  C 3.0789467866130087 0  9.031575766817781 0  9.031575766817781 0  L 13 4.218237648736086  C 13 4.218237648736086  13 12.727281272765728  13 12.727281272765728  C 13 13.018181248482286  12.8973640187051 13.27273439397144  12.692099425683853 13.490940709233191  Z M 11.97368440446233 4.690871775589657  L 8.518417969048945 4.690871775589657  L 8.518417969048945 1.0909062424114242  L 3 1.0909062424114242  L 3 12.727281272765728  L 11.97368440446233 12.727281272765728  L 11.97368440446233 4.690871775589657  Z M 9.544733564586616 16  C 9.544733564586616 16  1.0263155955376695 16  1.0263155955376695 16  C 0.7526319280321948 16  0.5131577977688347 15.890959509317792  0.30789320474758947 15.67275319405604  C 0.1026286117263441 15.454546878794288  0 15.199993733305133  0 14.909093757588575  C 0 14.909093757588575  0 3.6546111124166725  0 3.6546111124166725  L 1 3.6546111124166725  L 1 14.909093757588575  L 9.544733564586616 14.909093757588575  L 9.544733564586616 16  Z M 3 12.727281272765728  L 3 1.0909062424114242  L 3.0789467866130087 4.690871775589657  L 3 1.0909062424114242  L 3 12.727281272765728  Z " fill-rule="nonzero" fill="#005ea2" stroke="none" transform="matrix(1 0 0 1 383 99 )" />
  </g>
</svg>