<?xml version="1.0" encoding="UTF-8"?>
<svg id="Layer_1" data-name="Layer 1" xmlns="http://www.w3.org/2000/svg" viewBox="0 0 50 40">
  <defs>
    <style>
      .cls-1 {
        fill: #408a4b;
      }

      .cls-1, .cls-2 {
        stroke-width: 0px;
      }

      .cls-2 {
        fill: #646d7c;
      }
    </style>
  </defs>
  <path class="cls-1" d="M43.89,20.15H6.55c-.74,0-1.33.6-1.33,1.34v13.36c0,.74.6,1.34,1.33,1.34h37.34c.74,0,1.33-.6,1.33-1.34v-13.36c0-.74-.6-1.34-1.33-1.34ZM18.22,32.06c-2.26,0-3.94-1.76-3.94-3.99v-.02c0-2.21,1.65-4.01,4.01-4.01,1.45,0,2.32.49,3.03,1.2l-1.08,1.25c-.59-.54-1.2-.88-1.97-.88-1.3,0-2.23,1.09-2.23,2.42v.02c0,1.33.91,2.44,2.23,2.44.88,0,1.42-.35,2.02-.91l1.08,1.1c-.79.85-1.67,1.39-3.15,1.39ZM28.28,29.64c0,1.54-1.16,2.41-2.82,2.41-1.16,0-2.34-.41-3.26-1.24l1-1.21c.69.58,1.42.94,2.3.94.69,0,1.11-.28,1.11-.73v-.02c0-.43-.26-.65-1.55-.99-1.55-.4-2.55-.83-2.55-2.37v-.02c0-1.41,1.12-2.34,2.69-2.34,1.12,0,2.08.35,2.86.99l-.88,1.29c-.68-.48-1.35-.76-2-.76s-.99.3-.99.68v.02c0,.51.33.68,1.66,1.02,1.56.41,2.44.98,2.44,2.33v.02ZM33.37,31.99h-1.49l-3.11-7.82h1.87l2.01,5.47,2.01-5.47h1.82l-3.11,7.82Z"/>
  <path class="cls-2" d="M13.96,20.19V5.03h14.39v8.21h8.13v6.95h2.8v-9.49c0-.06,0-.12,0-.18h0c.05-.78-.23-1.57-.82-2.17l-4.96-5.01c-.51-.69-1.33-1.15-2.25-1.15H13.96c-1.17,0-2.16.72-2.59,1.74-.15.35-.22.73-.22,1.1v15.15h2.8Z"/>
</svg>