<?xml version="1.0" encoding="UTF-8"?>
<svg id="Layer_1" data-name="Layer 1" xmlns="http://www.w3.org/2000/svg" viewBox="0 0 50 40">
  <defs>
    <style>
      .cls-1 {
        fill: #4b66b0;
      }

      .cls-1, .cls-2 {
        stroke-width: 0px;
      }

      .cls-2 {
        fill: #646d7c;
      }
    </style>
  </defs>
  <path class="cls-1" d="M43.89,20.95H6.55c-.74,0-1.33.6-1.33,1.34v13.36c0,.74.6,1.34,1.33,1.34h37.34c.74,0,1.33-.6,1.33-1.34v-13.36c0-.74-.6-1.34-1.33-1.34ZM18.76,32.86l-1.72-2.66-1.74,2.66h-1.92l2.68-3.95-2.57-3.81h1.98l1.62,2.52,1.63-2.52h1.92l-2.57,3.79,2.68,3.97h-1.98ZM29.69,32.86h-1.68v-5.07l-2.16,3.31h-.04l-2.14-3.28v5.03h-1.66v-7.76h1.82l2.02,3.28,2.02-3.28h1.82v7.76ZM37.06,32.86h-5.53v-7.76h1.69v6.21h3.83v1.55Z"/>
  <path class="cls-2" d="M13.96,20.99V5.83h14.39v8.21h8.13v6.95h2.8v-9.49c0-.06,0-.12,0-.18h0c.05-.78-.23-1.57-.82-2.17l-4.96-5.01c-.51-.69-1.33-1.15-2.25-1.15H13.96c-1.17,0-2.16.72-2.59,1.74-.15.35-.22.73-.22,1.1v15.15h2.8Z"/>
</svg>