<?xml version="1.0" encoding="UTF-8"?>
<svg id="Layer_1" data-name="Layer 1" xmlns="http://www.w3.org/2000/svg" viewBox="0 0 50 40">
  <defs>
    <style>
      .cls-1 {
        fill: #979797;
      }

      .cls-1, .cls-2 {
        stroke-width: 0px;
      }

      .cls-2 {
        fill: #646d7c;
      }
    </style>
  </defs>
  <path class="cls-2" d="M13.74,20.67V5.51h14.39v8.21h8.13v6.95h2.8v-9.49c0-.06,0-.12,0-.18h0c.05-.78-.23-1.57-.82-2.17l-4.96-5.01c-.51-.69-1.33-1.15-2.25-1.15H13.74c-1.17,0-2.16.72-2.59,1.74-.15.35-.22.73-.22,1.1v15.15h2.8Z"/>
  <path class="cls-1" d="M43.67,20.63H6.33c-.74,0-1.33.6-1.33,1.34v13.36c0,.74.6,1.34,1.33,1.34h37.34c.74,0,1.33-.6,1.33-1.34v-13.36c0-.74-.6-1.34-1.33-1.34ZM16.24,32.54h-1.69v-3.12h-3.12v3.12h-1.69v-7.76h1.69v3.07h3.12v-3.07h1.69v7.76ZM23.91,26.35h-2.34v6.19h-1.69v-6.19h-2.34v-1.57h6.37v1.57ZM32.89,32.54h-1.68v-5.07l-2.16,3.31h-.04l-2.14-3.28v5.03h-1.66v-7.76h1.82l2.02,3.28,2.02-3.28h1.82v7.76ZM40.27,32.54h-5.53v-7.76h1.69v6.21h3.83v1.55Z"/>
</svg>