<?xml version="1.0" encoding="UTF-8"?>
<svg id="Layer_1" data-name="Layer 1" xmlns="http://www.w3.org/2000/svg" viewBox="0 0 50 40">
  <defs>
    <style>
      .cls-1 {
        fill: #d1736c;
      }

      .cls-1, .cls-2 {
        stroke-width: 0px;
      }

      .cls-2 {
        fill: #646d7c;
      }
    </style>
  </defs>
  <g>
    <path class="cls-1" d="M25.13,26.28h-1.31v4.68h1.31c1.38,0,2.32-.94,2.32-2.32v-.02c0-1.37-.93-2.34-2.32-2.34Z"/>
    <path class="cls-1" d="M17.79,26.28h-1.31v2.37h1.34c.85,0,1.34-.51,1.34-1.18v-.02c0-.76-.53-1.18-1.37-1.18Z"/>
    <path class="cls-1" d="M44.35,20.6H7.02c-.74,0-1.33.6-1.33,1.34v13.36c0,.74.6,1.34,1.33,1.34h37.34c.74,0,1.33-.6,1.33-1.34v-13.36c0-.74-.6-1.34-1.33-1.34ZM20.88,27.45c0,1.8-1.38,2.73-3.11,2.73h-1.29v2.33h-1.69v-7.76h3.14c1.83,0,2.94,1.1,2.94,2.68v.02ZM29.22,28.62c0,2.18-1.67,3.88-4.09,3.88h-3v-7.76h3c2.42,0,4.09,1.67,4.09,3.86v.02ZM36.58,26.29h-4.16v1.65h3.67v1.55h-3.67v3h-1.69v-7.76h5.86v1.55Z"/>
  </g>
  <path class="cls-2" d="M14.42,20.64V5.47h14.39v8.21h8.13v6.95h2.8v-9.49c0-.06,0-.12,0-.18h0c.05-.78-.23-1.57-.82-2.17l-4.96-5.01c-.51-.69-1.33-1.15-2.25-1.15H14.43c-1.17,0-2.16.72-2.59,1.74-.15.35-.22.73-.22,1.1v15.15h2.8Z"/>
</svg>