<?xml version="1.0" encoding="UTF-8"?>
<svg id="Layer_1" data-name="Layer 1" xmlns="http://www.w3.org/2000/svg" viewBox="0 0 50 40">
  <defs>
    <style>
      .cls-1 {
        fill: #408a4b;
      }

      .cls-1, .cls-2 {
        stroke-width: 0px;
      }

      .cls-2 {
        fill: #646d7c;
      }
    </style>
  </defs>
  <path class="cls-1" d="M43.67,20.94H6.33c-.74,0-1.33.6-1.33,1.33v13.24c0,.74.6,1.33,1.33,1.33h37.34c.74,0,1.33-.6,1.33-1.33v-13.24c0-.74-.6-1.33-1.33-1.33ZM20.74,26.61h-2.34v6.13h-1.69v-6.13h-2.34v-1.56h6.37v1.56ZM27.43,30.47c0,1.53-1.16,2.38-2.82,2.38-1.16,0-2.34-.41-3.26-1.23l1-1.2c.69.57,1.42.93,2.3.93.69,0,1.11-.27,1.11-.73v-.02c0-.43-.26-.65-1.55-.98-1.55-.4-2.55-.82-2.55-2.35v-.02c0-1.4,1.12-2.32,2.69-2.32,1.12,0,2.08.35,2.86.98l-.88,1.27c-.68-.47-1.35-.76-2-.76s-.99.3-.99.67v.02c0,.51.33.67,1.66,1.01,1.56.41,2.44.97,2.44,2.31v.02ZM32.52,32.8h-1.49l-3.11-7.75h1.87l2.01,5.42,2.01-5.42h1.82l-3.11,7.75Z"/>
  <path class="cls-2" d="M13.74,20.98V5.96h14.39v8.14h8.13v6.89h2.8v-9.4c0-.06,0-.12,0-.18h0c.05-.77-.23-1.56-.82-2.15l-4.96-4.96c-.51-.69-1.33-1.14-2.25-1.14H13.74c-1.17,0-2.16.71-2.59,1.72-.15.35-.22.72-.22,1.09v15.01h2.8Z"/>
</svg>