<?xml version="1.0" encoding="utf-8"?>
<svg version="1.1" xmlns:xlink="http://www.w3.org/1999/xlink" width="15px" height="15px" xmlns="http://www.w3.org/2000/svg">
  <g transform="matrix(1 0 0 1 -516 -574 )">
    <path d="M 1.5789473684210524 4.7368421052631575  L 1.5789473684210524 7.894736842105263  L 6.31578947368421 7.894736842105263  L 6.31578947368421 4.7368421052631575  L 1.5789473684210524 4.7368421052631575  Z M 1.5789473684210524 1.5789473684210527  L 1.5789473684210524 3.1578947368421053  L 12.63157894736842 3.1578947368421053  L 12.63157894736842 1.5789473684210527  L 1.5789473684210524 1.5789473684210527  Z M 1.5789473684210538 14.13157894736842  L 1.5789473684210524 14.210526315789473  C 1.105263157894737 14.210526315789473  0.7894736842105262 14.052631578947368  0.4736842105263158 13.736842105263158  C 0.15789473684210537 13.421052631578947  0 13.026315789473685  0 12.631578947368421  L 0 1.5789473684210527  C 0 1.1052631578947372  0.15789473684210537 0.7894736842105263  0.4736842105263158 0.47368421052631593  C 0.7894736842105262 0.15789473684210542  1.1842105263157892 0  1.5789473684210524 0  L 12.63157894736842 0  C 13.105263157894736 0  13.421052631578943 0.15789473684210542  13.736842105263154 0.47368421052631593  C 14.052631578947365 0.7894736842105263  14.21052631578947 1.1842105263157894  14.21052631578947 1.5789473684210527  L 14.21052631578947 6.552631578947369  C 13.973684210526313 6.473684210526317  13.736842105263154 6.394736842105264  13.421052631578943 6.315789473684211  C 13.105263157894736 6.236842105263157  12.868421052631577 6.315789473684211  12.63157894736842 6.315789473684211  C 12.315789473684209 6.315789473684211  12.07894736842105 6.473684210526315  11.842105263157894 6.552631578947369  C 11.605263157894735 6.631578947368422  11.368421052631575 6.86842105263158  11.131578947368421 7.026315789473684  L 10.342105263157894 7.8157894736842115  L 6.315789473684211 11.842105263157896  L 6.315789473684211 14.13157894736842  L 1.5789473684210538 14.13157894736842  Z M 1.5789473684210524 9.473684210526315  L 1.5789473684210524 12.631578947368421  L 6.31578947368421 12.631578947368421  L 6.31578947368421 9.473684210526315  L 1.5789473684210524 9.473684210526315  Z M 7.894736842105261 4.7368421052631575  L 7.894736842105261 7.894736842105263  L 10.342105263157894 7.894736842105263  L 11.131578947368421 7.105263157894736  C 11.368421052631579 6.868421052631579  11.605263157894736 6.7105263157894735  11.842105263157894 6.631578947368421  C 12.078947368421048 6.552631578947369  12.39473684210526 6.394736842105263  12.63157894736842 6.394736842105263  L 12.63157894736842 4.7368421052631575  L 7.894736842105261 4.7368421052631575  Z M 10.342105263157894 15  L 7.894736842105261 15  L 7.894736842105261 12.552631578947368  L 12.236842105263156 8.210526315789473  C 12.39473684210526 8.052631578947368  12.473684210526315 7.973684210526314  12.63157894736842 7.973684210526314  C 12.789473684210522 7.973684210526314  12.947368421052628 7.894736842105261  13.105263157894736 7.894736842105261  C 13.263157894736842 7.894736842105261  13.421052631578943 7.894736842105261  13.578947368421051 7.973684210526314  C 13.736842105263161 8.052631578947366  13.894736842105262 8.131578947368418  13.973684210526315 8.210526315789473  L 14.684210526315788 8.921052631578947  C 14.76315789473684 9.078947368421051  14.842105263157892 9.157894736842106  14.921052631578945 9.315789473684209  C 15 9.473684210526313  15 9.631578947368421  15 9.789473684210526  C 15 9.94736842105263  15 10.105263157894736  14.921052631578945 10.26315789473684  C 14.842105263157892 10.421052631578945  14.76315789473684 10.578947368421051  14.684210526315788 10.657894736842104  L 10.342105263157894 15  Z M 13.105263157894736 9.078947368421053  L 13.815789473684209 9.789473684210527  L 13.105263157894736 9.078947368421053  Z M 9.078947368421053 13.026315789473685  L 9.078947368421051 13.81578947368421  L 9.868421052631577 13.81578947368421  L 12.236842105263156 11.368421052631577  L 11.526315789473683 10.657894736842104  L 9.078947368421053 13.026315789473685  Z M 11.763157894736839 10.973684210526315  L 11.842105263157894 11.052631578947368  L 11.447368421052628 10.657894736842104  L 12.1578947368421 11.368421052631577  L 11.763157894736839 10.973684210526315  Z " fill-rule="nonzero" fill="#005ea2" stroke="none" transform="matrix(1 0 0 1 516 574 )" />
  </g>
</svg>