<?xml version="1.0" encoding="utf-8"?>
<svg version="1.1" xmlns:xlink="http://www.w3.org/1999/xlink" width="15px" height="15px" xmlns="http://www.w3.org/2000/svg">
  <g transform="matrix(1 0 0 1 22 -29 )">
    <path d="M 13.93940103465113 2.121119005926724  C 13.93940103465113 2.121119005926724  10.151517144564924 6.95068359375  10.151517144564924 6.95068359375  L 9.071976234172952 5.871119005926724  L 11.780303428912985 2.4241901266163794  L 5.625 2.4241901266163794  L 4.109849600956358 0.9089608028017241  C 4.109849600956358 0.9089608028017241  13.333337718042834 0.9089608028017241  13.333337718042834 0.9089608028017241  C 13.648997339709052 0.9089608028017241  13.876261217840787 1.0478683997844827  14.015153029869344 1.32568359375  C 14.154044841897898 1.6033725080818966  14.128796807650861 1.8685597386853448  13.93940103465113 2.121119005926724  Z M 15 13.939251077586206  L 13.920459089608029 15  L 9.545453827956628 10.624915813577585  C 9.545453827956628 10.624915813577585  9.545453827956628 12.272612473060343  9.545453827956628 12.272612473060343  C 9.545453827956628 12.487287850215518  9.472858823578932 12.667236328125  9.327653029869344 12.812457906788794  C 9.182455128636853 12.957553205818966  9.002530328158674 13.030163995150861  8.787878628434807 13.030163995150861  C 8.787878628434807 13.030163995150861  7.272728229391156 13.030163995150861  7.272728229391156 13.030163995150861  C 7.058084422144397 13.030163995150861  6.87815962166621 12.957553205818966  6.732953827956634 12.812457906788794  C 6.587755926724138 12.667236328125  6.515153029869342 12.487287850215518  6.515153029869342 12.272612473060343  C 6.515153029869342 12.272612473060343  6.515153029869342 7.594583445581897  6.515153029869342 7.594583445581897  L 0 1.0794383081896552  L 1.0606068578259698 0  L 15 13.939251077586206  Z " fill-rule="nonzero" fill="#005ea2" stroke="none" transform="matrix(1 0 0 1 -22 29 )" />
  </g>
</svg>