<?xml version="1.0" encoding="UTF-8"?>
<svg id="Layer_1" xmlns="http://www.w3.org/2000/svg" width="245px" height="30px" version="1.1" viewBox="0 0 607.7 62.5">
  <!-- Generator: Adobe Illustrator 29.1.0, SVG Export Plug-In . SVG Version: 2.1.0 Build 142)  -->
  <defs>
    <style>
      .st0 {
        fill: #1d1a1a;
      }
    </style>
  </defs>
  <path class="st0" d="M12,26.7l19.6,9.3c1.1.5,1.9,1,2.3,1.6.4.5.7,1.1.7,1.9s-.3,1.5-.8,2-1.2.8-2.1.8-.8,0-1.2-.2-1-.3-1.6-.6L5.2,30.5c-.1,0-.3-.1-.6-.2-2.1-1-3.2-2.1-3.2-3.5s1.1-2.5,3.3-3.6l.2-.2,23.9-11.1c.8-.4,1.4-.6,1.8-.7.4-.1.7-.2,1-.2.9,0,1.6.3,2.1.8.5.5.8,1.2.8,2s-.2,1.4-.7,1.9c-.5.5-1.2,1.1-2.3,1.6l-19.6,9.3Z"/>
  <path class="st0" d="M64.9,8.3l-17.7,37.8c-.5,1.2-1,2-1.5,2.5-.5.5-1,.7-1.6.7-.9,0-1.7-.3-2.5-.9-.7-.6-1.1-1.3-1.1-2.2s.3-1.5.8-2.7h0c0-.1,17.6-37.9,17.6-37.9.6-1.2,1.1-2.1,1.5-2.5.5-.5,1-.7,1.6-.7.9,0,1.7.3,2.4.9.7.6,1.1,1.3,1.1,2.2s0,.7-.2,1.1c-.1.4-.4,1-.7,1.7Z"/>
  <path class="st0" d="M84.4,9c4.5,0,8.3,1.8,11.2,5.3s4.4,8,4.4,13.5-1.5,10-4.4,13.6c-2.9,3.5-6.7,5.3-11.3,5.3s-8.3-1.8-11.2-5.3c-3-3.5-4.4-8-4.4-13.5s1.5-10,4.4-13.5c2.9-3.5,6.7-5.3,11.3-5.3ZM84.4,16c-2.4,0-4.3,1-5.6,3.1-1.4,2.1-2,5-2,8.7s.7,6.6,2.1,8.7c1.4,2.1,3.2,3.2,5.6,3.2s4.3-1,5.6-3.1c1.4-2.1,2.1-5,2.1-8.8s-.7-6.6-2-8.7c-1.4-2.1-3.2-3.1-5.6-3.1Z"/>
  <path class="st0" d="M113.2,42.9v8.2h3.5c1.3,0,2.2.3,2.7.8.5.5.8,1.4.8,2.6s-.3,2-.8,2.5c-.5.5-1.4.8-2.7.8h-11.8c-1.3,0-2.2-.2-2.7-.7-.5-.5-.8-1.3-.8-2.5s.3-2,.8-2.6c.5-.5,1.4-.8,2.7-.8h1.6v-26.6h-.4c-1,0-1.7-.3-2.2-.8-.5-.6-.8-1.4-.8-2.5s.3-2,.8-2.5c.5-.5,1.4-.8,2.7-.8h4.3c.5,0,.9.1,1.2.3s.4.5.4.9v2.2c.9-1.4,2.1-2.4,3.4-3.1,1.3-.7,2.9-1,4.5-1,3.8,0,6.9,1.3,9.4,3.9,2.5,2.6,3.7,5.9,3.7,9.9s-1.2,7.6-3.6,10.4c-2.4,2.7-5.5,4.1-9.1,4.1s-2.9-.2-4.2-.7c-1.3-.5-2.4-1.1-3.4-2ZM119.6,23.6c-1.8,0-3.3.7-4.5,2.2-1.2,1.5-1.8,3.3-1.8,5.6s.6,4.2,1.8,5.6c1.2,1.5,2.7,2.2,4.5,2.2s3.3-.7,4.5-2.2c1.2-1.5,1.8-3.3,1.8-5.6s-.6-4.2-1.8-5.6c-1.2-1.5-2.7-2.2-4.5-2.2Z"/>
  <path class="st0" d="M145,33.6c.5,2.2,1.4,3.9,2.8,5,1.4,1.1,3.2,1.7,5.5,1.7s4.6-.6,6.8-1.8c2.2-1.2,3.6-1.8,4-1.8.7,0,1.2.3,1.7.8.4.6.6,1.3.6,2.1,0,1.9-1.3,3.5-3.9,4.9s-5.7,2-9.5,2-8.1-1.4-10.9-4.1c-2.8-2.7-4.2-6.2-4.2-10.5s1.4-7.8,4.2-10.5c2.8-2.7,6.4-4.1,10.9-4.1s7.3,1.3,9.9,3.8,3.9,5.7,3.9,9.4-.3,2-.8,2.4c-.5.4-1.6.7-3.3.7h-17.9ZM160,28.9c-.3-1.9-1.1-3.3-2.4-4.3-1.3-1-3-1.5-5.1-1.5s-3.6.5-4.9,1.5-2.1,2.4-2.6,4.4h14.9Z"/>
  <path class="st0" d="M197,39.1h.4c1,0,1.8.3,2.3.8.5.6.8,1.4.8,2.5s-.3,2-.8,2.6c-.5.5-1.4.8-2.7.8h-6.8c-1.2,0-2.1-.3-2.7-.8-.5-.5-.8-1.4-.8-2.6s.3-1.9.8-2.5,1.3-.8,2.4-.8h.3v-8.7c0-2.4-.3-4.1-.9-5.1-.6-1-1.6-1.5-3.1-1.5s-2.8.6-3.8,1.8c-1,1.2-1.5,2.8-1.5,4.8v8.7h.3c1.1,0,1.8.3,2.4.8.5.6.8,1.4.8,2.5s-.3,2-.8,2.6c-.5.5-1.4.8-2.7.8h-6.9c-1.2,0-2.1-.3-2.7-.8-.5-.5-.8-1.4-.8-2.6s.3-1.9.8-2.5c.5-.6,1.3-.8,2.4-.8h.3v-14.6h-.5c-1,0-1.8-.3-2.3-.8-.5-.6-.8-1.4-.8-2.4s.3-2,.8-2.6c.5-.5,1.4-.8,2.7-.8h4.7c.5,0,.9.1,1.2.3.3.2.4.5.4,1v2.3c.8-1.4,1.9-2.5,3.3-3.3,1.3-.7,2.9-1.1,4.6-1.1,3,0,5.2,1,6.6,2.9,1.4,1.9,2.2,4.9,2.2,8.9v10.1Z"/>
  <path class="st0" d="M223.3,39.1v-22.5h-.5c-1,0-1.8-.3-2.3-.8-.5-.6-.8-1.4-.8-2.5s.3-2,.8-2.5c.6-.5,1.5-.8,2.7-.8h6.8c3.9,0,6.7.2,8.5.5s3.3,1,4.6,1.8c2.2,1.4,3.9,3.5,5.1,6.2s1.8,5.8,1.8,9.3-.7,7-2,9.7c-1.4,2.8-3.3,4.9-5.8,6.3-1.1.6-2.4,1.1-4,1.4-1.5.3-3.8.4-6.8.4h-8.3c-1.3,0-2.2-.3-2.7-.8-.5-.5-.8-1.4-.8-2.6s.3-1.9.8-2.4c.5-.6,1.3-.8,2.3-.8h.5ZM230.5,16.5v22.6h1.6c3.5,0,6.1-.9,7.7-2.8s2.5-4.7,2.5-8.6-.8-6.6-2.5-8.5c-1.7-1.9-4.2-2.8-7.6-2.8s-.8,0-1,0c-.2,0-.4,0-.6,0Z"/>
  <path class="st0" d="M279.6,39.1h.4c1,0,1.8.3,2.3.9s.8,1.4.8,2.5-.3,2-.8,2.5c-.5.5-1.4.8-2.7.8h-2.6c-.9,0-1.6-.2-2.1-.6-.5-.4-.8-1.1-1.1-2.1-1.5,1.1-3.2,1.9-4.9,2.5-1.7.6-3.5.9-5.2.9-3,0-5.3-.8-7-2.4-1.7-1.6-2.6-3.8-2.6-6.6s1.1-5.4,3.3-7c2.2-1.7,5.3-2.5,9.3-2.5s1.8,0,2.8.2c1,.1,2.1.3,3.4.5v-.6c0-1.8-.4-3.2-1.2-4.1-.8-.9-2-1.4-3.6-1.4s-2.8.5-4.7,1.5c-1.9,1-3.3,1.5-4.2,1.5s-1.6-.3-2.1-.8c-.5-.6-.8-1.3-.8-2.2,0-1.6,1.1-2.9,3.3-3.9,2.2-1,5.2-1.4,8.9-1.4s6.8.8,8.5,2.5c1.7,1.6,2.5,4.4,2.5,8.4v11.2ZM272.9,33.3c-.9-.2-1.8-.4-2.6-.5-.8-.1-1.5-.2-2.2-.2-2,0-3.6.4-4.8,1.1-1.2.7-1.7,1.8-1.7,3.1s.4,2.1,1.1,2.7c.7.6,1.8.9,3.2.9s2.5-.2,3.6-.6c1.1-.4,2.2-1,3.3-1.9v-4.6Z"/>
  <path class="st0" d="M298.3,19.6h8.5c1.3,0,2.2.3,2.7.8.5.5.8,1.3.8,2.5s-.3,2-.8,2.6-1.4.8-2.7.8h-8.5v7.7c0,2.2.3,3.7.9,4.5.6.8,1.7,1.2,3.2,1.2s3.1-.5,5.1-1.4,3.3-1.4,3.9-1.4,1.4.3,2,1c.5.7.8,1.4.8,2.4,0,1.5-1.3,3-3.9,4.2-2.6,1.3-5.5,1.9-8.8,1.9s-3.6-.3-5-.8c-1.4-.6-2.6-1.4-3.4-2.4-.6-.8-1-1.8-1.3-2.9s-.4-3-.4-5.6v-8.4h-2.6c-1.3,0-2.1-.3-2.7-.8-.5-.5-.8-1.4-.8-2.6s.3-2,.8-2.5c.5-.5,1.4-.7,2.7-.7h2.6v-7.1c0-1.4.3-2.4.8-2.9.5-.6,1.4-.8,2.6-.8s2.1.3,2.6.8c.5.6.8,1.5.8,2.9v7.1Z"/>
  <path class="st0" d="M344.7,39.1h.4c1,0,1.8.3,2.3.9s.8,1.4.8,2.5-.3,2-.8,2.5c-.5.5-1.4.8-2.7.8h-2.6c-.9,0-1.6-.2-2.1-.6-.5-.4-.8-1.1-1.1-2.1-1.5,1.1-3.2,1.9-4.9,2.5-1.7.6-3.5.9-5.2.9-3,0-5.3-.8-7-2.4-1.7-1.6-2.6-3.8-2.6-6.6s1.1-5.4,3.3-7c2.2-1.7,5.3-2.5,9.3-2.5s1.8,0,2.8.2c1,.1,2.1.3,3.4.5v-.6c0-1.8-.4-3.2-1.2-4.1-.8-.9-2-1.4-3.6-1.4s-2.8.5-4.7,1.5c-1.9,1-3.3,1.5-4.2,1.5s-1.6-.3-2.1-.8c-.5-.6-.8-1.3-.8-2.2,0-1.6,1.1-2.9,3.3-3.9,2.2-1,5.2-1.4,8.9-1.4s6.8.8,8.5,2.5c1.7,1.6,2.5,4.4,2.5,8.4v11.2ZM337.9,33.3c-.9-.2-1.8-.4-2.6-.5-.8-.1-1.5-.2-2.2-.2-2,0-3.6.4-4.8,1.1-1.2.7-1.7,1.8-1.7,3.1s.4,2.1,1.1,2.7c.7.6,1.8.9,3.2.9s2.5-.2,3.6-.6c1.1-.4,2.2-1,3.3-1.9v-4.6Z"/>
  <path class="st0" d="M380.7,32.9v6.2h2.9c1.2,0,2.1.3,2.6.8.5.5.8,1.3.8,2.5s-.3,2-.8,2.6c-.5.5-1.4.8-2.6.8h-9.6c-1.2,0-2.1-.3-2.6-.8-.5-.5-.8-1.4-.8-2.6s.2-1.9.7-2.4c.5-.6,1.2-.8,2.2-.8h.5v-22.5h-.5c-.9,0-1.7-.3-2.2-.9s-.8-1.4-.8-2.5.3-2,.8-2.5c.5-.5,1.4-.8,2.6-.8h11.4c4.5,0,8,.9,10.3,2.8,2.3,1.9,3.5,4.7,3.5,8.3s-1.2,6.8-3.5,8.8c-2.3,2-5.7,3-10.3,3h-4.7ZM380.7,16.6v9.5h3.9c2.2,0,3.8-.4,4.9-1.2,1.1-.8,1.6-2,1.6-3.6s-.6-2.7-1.7-3.5c-1.1-.8-2.8-1.2-4.9-1.2h-3.9Z"/>
  <path class="st0" d="M417.6,17.2c4.5,0,8.1,1.4,10.9,4.1,2.8,2.7,4.2,6.2,4.2,10.5s-1.4,7.8-4.2,10.5c-2.8,2.7-6.4,4.1-10.9,4.1s-8.1-1.4-10.9-4.1c-2.8-2.7-4.2-6.2-4.2-10.5s1.4-7.8,4.2-10.5c2.8-2.7,6.4-4.1,10.9-4.1ZM417.6,23.6c-2.2,0-3.9.8-5.3,2.3-1.4,1.5-2.1,3.5-2.1,5.9s.7,4.4,2.1,6c1.4,1.6,3.2,2.4,5.3,2.4s3.9-.8,5.4-2.4c1.4-1.6,2.1-3.6,2.1-6s-.7-4.4-2.1-5.9c-1.4-1.5-3.2-2.3-5.4-2.3Z"/>
  <path class="st0" d="M448.2,29.4v9.8h6.5c1.3,0,2.1.3,2.7.8.5.5.8,1.3.8,2.5s-.3,2-.8,2.6c-.5.5-1.4.8-2.7.8h-15.5c-1.3,0-2.2-.3-2.7-.8-.5-.5-.8-1.4-.8-2.6s.3-2,.8-2.5c.5-.5,1.4-.8,2.7-.8h2.1v-14.6h-1.2c-1.3,0-2.2-.3-2.7-.8-.5-.5-.8-1.4-.8-2.5s.3-2,.8-2.5c.5-.5,1.4-.8,2.7-.8h5.9c.5,0,.9.1,1.2.3.3.2.4.5.4.9v4.5c2-2.4,3.9-4,5.6-5,1.7-1,3.6-1.5,5.6-1.5s3.3.4,4.4,1.3c1.1.9,1.6,2.1,1.6,3.6s-.4,2.1-1.1,2.9-1.7,1.1-2.9,1.1-1.8-.3-3-1c-1.1-.7-1.9-1-2.4-1-.9,0-1.9.4-3.1,1.3-1.2.9-2.6,2.2-4.3,4Z"/>
  <path class="st0" d="M481.6,19.6h8.5c1.3,0,2.2.3,2.7.8.5.5.8,1.3.8,2.5s-.3,2-.8,2.6-1.4.8-2.7.8h-8.5v7.7c0,2.2.3,3.7.9,4.5.6.8,1.7,1.2,3.2,1.2s3.1-.5,5.1-1.4,3.3-1.4,3.9-1.4,1.4.3,2,1c.5.7.8,1.4.8,2.4,0,1.5-1.3,3-3.9,4.2-2.6,1.3-5.5,1.9-8.8,1.9s-3.6-.3-5-.8c-1.4-.6-2.6-1.4-3.4-2.4-.6-.8-1-1.8-1.3-2.9s-.4-3-.4-5.6v-8.4h-2.6c-1.3,0-2.1-.3-2.7-.8-.5-.5-.8-1.4-.8-2.6s.3-2,.8-2.5c.5-.5,1.4-.7,2.7-.7h2.6v-7.1c0-1.4.3-2.4.8-2.9.5-.6,1.4-.8,2.6-.8s2.1.3,2.6.8c.5.6.8,1.5.8,2.9v7.1Z"/>
  <path class="st0" d="M527.5,39.1h.4c1,0,1.8.3,2.3.9s.8,1.4.8,2.5-.3,2-.8,2.5c-.5.5-1.4.8-2.7.8h-2.6c-.9,0-1.6-.2-2.1-.6-.5-.4-.8-1.1-1.1-2.1-1.5,1.1-3.2,1.9-4.9,2.5-1.7.6-3.5.9-5.2.9-3,0-5.3-.8-7-2.4-1.7-1.6-2.6-3.8-2.6-6.6s1.1-5.4,3.3-7c2.2-1.7,5.3-2.5,9.3-2.5s1.8,0,2.8.2c1,.1,2.1.3,3.4.5v-.6c0-1.8-.4-3.2-1.2-4.1-.8-.9-2-1.4-3.6-1.4s-2.8.5-4.7,1.5c-1.9,1-3.3,1.5-4.2,1.5s-1.6-.3-2.1-.8c-.5-.6-.8-1.3-.8-2.2,0-1.6,1.1-2.9,3.3-3.9,2.2-1,5.2-1.4,8.9-1.4s6.8.8,8.5,2.5c1.7,1.6,2.5,4.4,2.5,8.4v11.2ZM520.8,33.3c-.9-.2-1.8-.4-2.6-.5-.8-.1-1.5-.2-2.2-.2-2,0-3.6.4-4.8,1.1-1.2.7-1.7,1.8-1.7,3.1s.4,2.1,1.1,2.7c.7.6,1.8.9,3.2.9s2.5-.2,3.6-.6c1.1-.4,2.2-1,3.3-1.9v-4.6Z"/>
  <path class="st0" d="M551,39.1h6c1.3,0,2.2.3,2.7.8.5.5.8,1.3.8,2.5s-.3,2-.8,2.6c-.5.5-1.4.8-2.7.8h-18.8c-1.2,0-2.1-.3-2.6-.8-.5-.5-.8-1.4-.8-2.6s.3-2,.8-2.5,1.4-.7,2.7-.7h6V13h-3c-1.3,0-2.2-.3-2.7-.8-.5-.5-.8-1.4-.8-2.5s.3-2,.8-2.6c.5-.5,1.4-.8,2.7-.8h8.3c.5,0,.9.1,1.2.3.3.2.4.5.4.9v31.5Z"/>
  <path class="st0" d="M590,26.7l-19.6-9.3c-1.1-.5-1.8-1-2.3-1.6-.5-.5-.7-1.2-.7-1.9s.3-1.5.8-2c.5-.5,1.2-.8,2-.8s.7,0,1.1.2,1,.4,1.8.7l23.9,11.1.2.2c2.2,1,3.3,2.2,3.3,3.6s-1.1,2.5-3.2,3.5c-.2.1-.4.2-.5.2l-23.8,10.9c-.6.3-1.1.5-1.6.6s-.8.2-1.2.2c-.8,0-1.5-.3-2-.8-.5-.5-.8-1.2-.8-2.1s.2-1.3.6-1.9c.4-.5,1.2-1,2.3-1.6l19.6-9.3Z"/>
</svg>