<?xml version="1.0" encoding="utf-8"?>
<svg version="1.1" xmlns:xlink="http://www.w3.org/1999/xlink" width="13px" height="13px" xmlns="http://www.w3.org/2000/svg">
  <g transform="matrix(1 0 0 1 -311 -512 )">
    <path d="M 11.781249999999972 13  C 11.781249999999972 13  1.2187500000000284 13  1.2187500000000284 13  C 0.8937438730111421 13  0.6093749999999715 12.878103555538798  0.36562806349448596 12.634371936505541  C 0.12186580951657064 12.390609682527714  0 12.106256126988859  0 11.78125  C 0 11.78125  0 8.876536460297112  0 8.876536460297112  L 1.2187500000000284 8.876536460297112  L 1.2187500000000284 11.78125  L 11.781249999999972 11.78125  L 11.781249999999972 8.876536460297112  L 13 8.876536460297112  C 13 8.876536460297112  13 11.78125  13 11.78125  C 13 12.106256126988859  12.878118873011086 12.390609682527714  12.634371936505515 12.634371936505541  C 12.390625000000028 12.878103555538798  12.106240809516628 13  11.781249999999972 13  Z M 10.420307904758342 5.9718535555387975  L 6.5 9.892176777769398  L 2.5796767777694276 5.9718535555387975  L 3.453125 5.098420650780484  L 5.890625000000028 7.535920650780484  L 5.890625000000028 0  L 7.109374999999972 0  L 7.109374999999972 7.535920650780484  L 9.546875 5.098420650780484  L 10.420307904758342 5.9718535555387975  Z " fill-rule="nonzero" fill="#ffffff" stroke="none" transform="matrix(1 0 0 1 311 512 )" />
  </g>
</svg>