<?xml version="1.0" encoding="utf-8"?>
<svg version="1.1" xmlns:xlink="http://www.w3.org/1999/xlink" width="35px" height="44px" xmlns="http://www.w3.org/2000/svg">
  <g transform="matrix(1 0 0 1 -706 -2698 )">
    <path d="M 35 37  L 0 37  L 0 33  L 4.375 33  C 4.375 33  4.375 17.6  4.375 17.6  C 4.375 14.55666778564453  5.286457777023315 11.8525  7.109375 9.4875  C 8.932292222976685 7.1225  11.302082777023315 5.573332214355469  14.21875 4.84  C 14.21875 4.84  14.21875 3.3  14.21875 3.3  C 14.21875 2.3833322143554687  14.537760972976685 1.6041677856445313  15.17578125 0.9624999999999999  C 15.813801527023315 0.32083221435546877  16.588542222976685 0  17.5 0  C 18.411457777023315 0  19.186198472976685 0.32083221435546877  19.82421875 0.9624999999999999  C 20.46224069595337 1.6041677856445313  20.78125 2.3833322143554687  20.78125 3.3  C 20.78125 3.3  20.78125 4.84  20.78125 4.84  C 23.69791555404663 5.573332214355469  26.06770944595337 7.1225  27.890625 9.4875  C 29.71354055404663 11.8525  30.625 14.55666778564453  30.625 17.6  C 30.625 17.6  30.625 33  30.625 33  L 35 33  L 35 37  Z M 20.58984375 42.707499999999996  C 19.73307180404663 43.56916652679443  18.703125 44  17.5 44  C 16.296875 44  15.266926527023315 43.56916652679443  14.41015625 42.707499999999996  C 13.553385972976685 41.845833473205566  13.125 40.81  13.125 39.6  C 13.125 39.6  21.875 39.6  21.875 39.6  C 21.875 40.81  21.44661569595337 41.845833473205566  20.58984375 42.707499999999996  Z M 8.75 17.6  C 8.75 17.6  8.75 33  8.75 33  L 26.25 33  C 26.25 33  26.25 17.6  26.25 17.6  C 26.25 15.18  25.39322805404663 13.108332214355467  23.6796875 11.385  C 21.96614694595337 9.66166778564453  19.90625 8.8  17.5 8.8  C 15.09375 8.8  13.033854722976685 9.66166778564453  11.3203125 11.385  C 9.606770277023315 13.108332214355467  8.75 15.18  8.75 17.6  Z " fill-rule="nonzero" fill="#005ea2" stroke="none" transform="matrix(1 0 0 1 706 2698 )" />
  </g>
</svg>