<?xml version="1.0" encoding="utf-8"?>
<svg version="1.1" xmlns:xlink="http://www.w3.org/1999/xlink" width="45px" height="45px" xmlns="http://www.w3.org/2000/svg">
  <g transform="matrix(1 0 0 1 -75 -864 )">
    <path d="M 38.46875 42.09375  C 34.11458206176758 44.03125  28.791667938232422 45  22.5 45  C 16.208332061767575 45  10.885417938232425 44.03125  6.531250000000001 42.09375  C 2.1770830154418945 40.15625  0 37.791666984558105  0 35  C 0 35  0 10  0 10  C 0 7.250000000000001  2.1979160308837873 4.895832061767578  6.59375 2.9375  C 10.989583969116211 0.9791679382324219  16.29166603088379 0  22.5 0  C 28.70833206176758 0  34.01041793823242 0.9791679382324219  38.40625 2.9375  C 42.80208206176758 4.895832061767578  45 7.250000000000001  45 10  C 45 10  45 35  45 35  C 45 37.791666984558105  42.82291793823242 40.15625  38.46875 42.09375  Z M 11.34375 13.5  C 14.989583969116211 14.541667938232422  18.70833396911621 15.062499999999998  22.5 15.062499999999998  C 26.208332061767578 15.062499999999998  29.9375 14.53125  33.6875 13.46875  C 37.4375 12.40625  39.54166793823242 11.270832061767578  40 10.0625  C 39.54166793823242 8.854167938232422  37.44791793823242 7.708332061767579  33.71875 6.625  C 29.989582061767575 5.541667938232422  26.25 5  22.5 5  C 18.70833396911621 5  14.989583969116211 5.53125  11.34375 6.59375  C 7.697916030883787 7.65625  5.5833330154418945 8.8125  5 10.0625  C 5.5833330154418945 11.3125  7.697916030883787 12.458332061767578  11.34375 13.5  Z M 17.375 27.249999999999996  C 19.04166603088379 27.416666030883793  20.75 27.500000000000004  22.5 27.500000000000004  C 24.25 27.500000000000004  25.937499999999996 27.416666030883793  27.562500000000004 27.249999999999996  C 29.1875 27.08333396911621  30.739582061767578 26.84375  32.21875 26.53125  C 33.69791793823242 26.21875  35.09375 25.83333396911621  36.40625 25.375  C 37.71875 24.91666603088379  38.91666793823242 24.39583396911621  40 23.8125  C 40 23.8125  40 16.3125  40 16.3125  C 38.91666793823242 16.895832061767578  37.71875 17.416667938232422  36.40625 17.875  C 35.09375 18.333332061767578  33.69791793823242 18.71875  32.21875 19.03125  C 30.739582061767578 19.34375  29.1875 19.583332061767578  27.562500000000004 19.75  C 25.937499999999996 19.916667938232422  24.25 20  22.5 20  C 20.75 20  19.04166603088379 19.916667938232422  17.375 19.75  C 15.708333969116211 19.583332061767578  14.135416030883789 19.34375  12.65625 19.03125  C 11.177083969116211 18.71875  9.791666030883789 18.333332061767578  8.5 17.875  C 7.2083330154418945 17.416667938232422  6.0416669845581055 16.895832061767578  5 16.3125  C 5 16.3125  5 23.8125  5 23.8125  C 6.0416669845581055 24.39583396911621  7.2083330154418945 24.91666603088379  8.5 25.375  C 9.791666030883789 25.83333396911621  11.177083969116211 26.21875  12.65625 26.53125  C 14.135416030883789 26.84375  15.708333969116211 27.08333396911621  17.375 27.249999999999996  Z M 16.625 39.5625  C 18.625 39.854166984558105  20.58333396911621 40  22.5 40  C 24.416666030883786 40  26.364582061767578 39.854166984558105  28.34375 39.5625  C 30.32291793823242 39.270833015441895  32.14583206176758 38.885416984558105  33.8125 38.40625  C 35.47916793823242 37.927083015441895  36.875 37.385416984558105  38 36.78125  C 39.125 36.17708396911621  39.79166793823242 35.5625  40 34.9375  C 40 34.9375  40 28.812499999999996  40 28.812499999999996  C 38.91666793823242 29.39583396911621  37.71875 29.91666603088379  36.40625 30.375000000000004  C 35.09375 30.83333396911621  33.69791793823242 31.21875  32.21875 31.531249999999996  C 30.739582061767578 31.84375  29.1875 32.08333396911621  27.562500000000004 32.25  C 25.937499999999996 32.41666603088379  24.25 32.5  22.5 32.5  C 20.75 32.5  19.04166603088379 32.41666603088379  17.375 32.25  C 15.708333969116211 32.08333396911621  14.135416030883789 31.84375  12.65625 31.531249999999996  C 11.177083969116211 31.21875  9.791666030883789 30.83333396911621  8.5 30.375000000000004  C 7.2083330154418945 29.91666603088379  6.0416669845581055 29.39583396911621  5 28.812499999999996  C 5 28.812499999999996  5 35  5 35  C 5.2083330154418945 35.625  5.8645830154418945 36.22916603088379  6.96875 36.8125  C 8.072916984558105 37.395833015441895  9.458333969116211 37.927083015441895  11.125 38.40625  C 12.791666030883789 38.885416984558105  14.625 39.270833015441895  16.625 39.5625  Z " fill-rule="nonzero" fill="#005ea2" stroke="none" transform="matrix(1 0 0 1 75 864 )" />
  </g>
</svg>