<?xml version="1.0" encoding="utf-8"?>
<svg version="1.1" xmlns:xlink="http://www.w3.org/1999/xlink" width="19px" height="15px" xmlns="http://www.w3.org/2000/svg">
  <g transform="matrix(1 0 0 1 -50 -188 )">
    <path d="M 17.57500555160198 15  C 17.57500555160198 15  1.425000616844664 15  1.425000616844664 15  C 1.0449996298932014 15  0.712500308422332 14.859371499810077  0.427499568208735 14.578126674003876  C 0.14249882799513797 14.296881848197675  0 13.96875273927907  0 13.593751521821705  C 0 13.593751521821705  0 1.4062363036046477  0 1.4062363036046477  C 0 1.0312472607209295  0.14249882799513797 0.7031181518023238  0.427499568208735 0.4218733259961236  C 0.712500308422332 0.1406163256162769  1.0449996298932014 0  1.425000616844664 0  C 1.425000616844664 0  17.57500555160198 0  17.57500555160198 0  C 17.955003454330132 0  18.28750431791265 0.1406163256162769  18.572501973902927 0.4218733259961236  C 18.857502714116528 0.7031181518023238  19 1.0312472607209295  19 1.4062363036046477  C 19 1.4062363036046477  19 13.593751521821705  19 13.593751521821705  C 19 13.96875273927907  18.857502714116528 14.296881848197675  18.572501973902927 14.578126674003876  C 18.28750431791265 14.859371499810077  17.955003454330132 15  17.57500555160198 15  Z M 1.425000616844664 3.3749987825426353  L 1.425000616844664 13.593751521821705  L 17.57500555160198 13.593751521821705  L 17.57500555160198 3.3749987825426353  L 1.425000616844664 3.3749987825426353  Z M 8.692502529063118 8.48437515218217  L 5.225001233689323 11.906246043263565  L 4.227501727165066 10.921870891081396  L 6.673750370106801 8.48437515218217  L 4.203751665480594 6.0468672387093  L 5.225001233689323 5.06249208652713  L 8.692502529063118 8.48437515218217  Z M 14.962501850533986 12.000002434914729  L 9.737500616844665 12.000002434914729  L 9.737500616844665 10.593753956736435  L 14.962501850533986 10.593753956736435  L 14.962501850533986 12.000002434914729  Z " fill-rule="nonzero" fill="#005ea2" stroke="none" transform="matrix(1 0 0 1 50 188 )" />
  </g>
</svg>