<?xml version="1.0" encoding="utf-8"?>
<svg version="1.1" xmlns:xlink="http://www.w3.org/1999/xlink" width="17px" height="18px" xmlns="http://www.w3.org/2000/svg">
  <g transform="matrix(1 0 0 1 -51 -186 )">
    <path d="M 4.470915883799977 18  L 2.682549530279986 18  C 2.682549530279986 18  2.682549530279986 14.13  2.682549530279986 14.13  C 1.8330755123579905 13.350000228881836  1.173615419497494 12.438750228881835  0.7041692516984963 11.39625  C 0.23472308389949878 10.353749771118164  0 9.255000228881835  0 8.1  C 0 5.8500000000000005  0.7824102796649959 3.9375  2.347230838994988 2.3625000000000003  C 3.9120513983249796 0.7875  5.81219064893997 0  8.047648590839959 0  C 9.910529754284866 0  11.561043777664523 0.55125  12.999187932148432 1.65375  C 14.437332086632342 2.75625  15.372499568604002 4.192499542236328  15.804687649232918 5.9624999999999995  C 15.804687649232918 5.9624999999999995  16.96712577902091 10.575000000000001  16.96712577902091 10.575000000000001  C 17.041640588945832 10.859999771118163  16.98948035843991 11.118749771118164  16.810643723087914 11.35125  C 16.63180708773591 11.583750228881836  16.393357785794834 11.700000000000001  16.095297181679918 11.700000000000001  C 16.095297181679918 11.700000000000001  14.306930828159926 11.700000000000001  14.306930828159926 11.700000000000001  C 14.306930828159926 11.700000000000001  14.306930828159926 14.4  14.306930828159926 14.4  C 14.306930828159926 14.895  14.131820410849508 15.318749885559082  13.781598211813428 15.67125  C 13.43137601277735 16.02375011444092  13.010365221857931 16.2  12.518564474639934 16.2  C 12.518564474639934 16.2  10.730198121119944 16.2  10.730198121119944 16.2  L 10.730198121119944 18  L 8.941831767599954 18  L 8.941831767599954 14.4  L 12.518564474639934 14.4  L 12.518564474639934 9.9  L 14.93285905189192 9.9  C 14.93285905189192 9.9  14.083385033969927 6.4125000000000005  14.083385033969927 6.4125000000000005  C 13.74061527101701 5.047499542236328  13.010365221857931 3.9375  11.892636250907938 3.0825000000000005  C 10.774907279957944 2.2275  9.493245181407033 1.8  8.047648590839959 1.8  C 6.3188942217014255 1.8  4.843491980047434 2.4075  3.6214418658779812 3.6225  C 2.3993914106047165 4.8374999999999995  1.7883663535199907 6.315000457763672  1.7883663535199907 8.055  C 1.7883663535199907 8.955  1.9709288658097606 9.81  2.336053549285488 10.62  C 2.7011782327612153 11.43  3.219059436335983 12.15  3.8896968189059797 12.78  C 3.8896968189059797 12.78  4.470915883799977 13.32  4.470915883799977 13.32  L 4.470915883799977 18  Z M 7.4105430773984615 12.34125  C 7.581927958874919 12.513749771118164  7.794296463355418 12.6  8.047648590839959 12.6  C 8.301000718324497 12.6  8.513369222804997 12.513749771118164  8.684754104281454 12.34125  C 8.856139667965536 12.168750228881835  8.941831767599954 11.955000228881836  8.941831767599954 11.700000000000001  C 8.941831767599954 11.444999771118166  8.856139667965536 11.231249771118163  8.684754104281454 11.05875  C 8.513369222804997 10.886250228881837  8.301000718324497 10.799999999999999  8.047648590839959 10.799999999999999  C 7.794296463355418 10.799999999999999  7.581927958874919 10.886250228881837  7.4105430773984615 11.05875  C 7.239158195922004 11.231249771118163  7.153465414079963 11.444999771118166  7.153465414079963 11.700000000000001  C 7.153465414079963 11.955000228881836  7.239158195922004 12.168750228881835  7.4105430773984615 12.34125  Z M 7.62291158187896 8.3925  C 7.458977772070419 8.7075  7.377011208269962 9.149999771118164  7.377011208269962 9.72  C 7.377011208269962 9.72  8.740640552828955 9.72  8.740640552828955 9.72  C 8.740640552828955 9.345000228881835  8.789075929708536 9.041250228881836  8.885945319052453 8.80875  C 8.98281470839637 8.576249771118164  9.180281069541035 8.294999771118164  9.478341673655951 7.965  C 9.74659662668395 7.665000457763672  10.00740050804403 7.3612504577636715  10.260751953320947 7.053749999999999  C 10.514103398597863 6.7462495422363284  10.640779803443944 6.345  10.640779803443944 5.8500000000000005  C 10.640779803443944 5.22  10.398605647876527 4.687499542236329  9.914255972326448 4.2524999999999995  C 9.429906296776368 3.8175004577636718  8.830058870504953 3.6  8.114712329096957 3.6  C 7.518590438659502 3.6  6.978354314561923 3.772500457763672  6.494005321219466 4.1175  C 6.0096563278770105 4.462499542236328  5.670611418550429 4.912499542236328  5.476871957654971 5.4675  C 5.476871957654971 5.4675  6.7063738256999645 5.985  6.7063738256999645 5.985  C 6.810694968919424 5.654999542236328  6.993257822313005 5.38875  7.2540610214654615 5.18625  C 7.51486422061792 4.98375  7.801748217230959 4.8825  8.114712329096957 4.8825  C 8.442579266506415 4.8825  8.714560437575996 4.9725  8.930654477890455 5.1525  C 9.146749200412534 5.3325000000000005  9.25479587946595 5.564999542236327  9.25479587946595 5.8500000000000005  C 9.25479587946595 6.165000000000001  9.16165134374837 6.446250000000001  8.975363636728455 6.6937500000000005  C 8.789075929708536 6.94125  8.569255671352497 7.192500457763672  8.315903543867956 7.4475  C 8.017842257545418 7.7625  7.786845391687501 8.0775  7.62291158187896 8.3925  Z " fill-rule="nonzero" fill="#005ea2" stroke="none" transform="matrix(1 0 0 1 51 186 )" />
  </g>
</svg>