<?xml version="1.0" encoding="utf-8"?>
<svg version="1.1" xmlns:xlink="http://www.w3.org/1999/xlink" width="26px" height="26px" xmlns="http://www.w3.org/2000/svg">
  <g transform="matrix(1 0 0 1 -303 -635 )">
    <path d="M 9.1 7.15  L 9.1 13.65  L 10.4 13.65  L 10.4 11.049999999999999  C 10.4 11.049999999999999  11.700000000000001 11.049999999999999  11.700000000000001 11.049999999999999  C 12.068333663940429 11.049999999999999  12.37708366394043 10.92541732788086  12.626249999999999 10.67625  C 12.87541633605957 10.427082672119141  13 10.11833267211914  13 9.75  C 13 9.75  13 8.450000000000001  13 8.450000000000001  C 13 8.08166732788086  12.87541633605957 7.772917327880859  12.626249999999999 7.52375  C 12.37708366394043 7.2745826721191404  12.068333663940429 7.15  11.700000000000001 7.15  C 11.700000000000001 7.15  9.1 7.15  9.1 7.15  Z M 11.700000000000001 9.75  L 10.4 9.75  L 10.4 8.450000000000001  L 11.700000000000001 8.450000000000001  L 11.700000000000001 9.75  Z M 14.3 7.15  L 14.3 13.65  C 14.3 13.65  16.900000000000002 13.65  16.900000000000002 13.65  C 17.26833267211914 13.65  17.57708267211914 13.52541633605957  17.82625 13.27625  C 18.07541732788086 13.02708366394043  18.2 12.71833366394043  18.2 12.35  C 18.2 12.35  18.2 8.450000000000001  18.2 8.450000000000001  C 18.2 8.08166732788086  18.07541732788086 7.772917327880859  17.82625 7.52375  C 17.57708267211914 7.2745826721191404  17.26833267211914 7.15  16.900000000000002 7.15  C 16.900000000000002 7.15  14.3 7.15  14.3 7.15  Z M 16.900000000000002 12.35  L 15.6 12.35  L 15.6 8.450000000000001  L 16.900000000000002 8.450000000000001  L 16.900000000000002 12.35  Z M 19.5 7.15  L 19.5 13.65  L 20.8 13.65  L 20.8 11.049999999999999  L 22.099999999999998 11.049999999999999  L 22.099999999999998 9.75  L 20.8 9.75  L 20.8 8.450000000000001  L 22.099999999999998 8.450000000000001  L 22.099999999999998 7.15  L 19.5 7.15  Z M 23.400000000000002 20.8  C 23.400000000000002 20.8  7.8 20.8  7.8 20.8  C 7.085000000000001 20.8  6.47291633605957 20.545416831970215  5.96375 20.03625  C 5.454583168029785 19.52708366394043  5.2 18.915  5.2 18.2  C 5.2 18.2  5.2 2.6  5.2 2.6  C 5.2 1.8849999999999998  5.454583168029785 1.2729173278808594  5.96375 0.7637499999999999  C 6.47291633605957 0.25458267211914065  7.085000000000001 0  7.8 0  C 7.8 0  23.400000000000002 0  23.400000000000002 0  C 24.115 0  24.72708267211914 0.25458267211914065  25.23625 0.7637499999999999  C 25.74541732788086 1.2729173278808594  26 1.8849999999999998  26 2.6  C 26 2.6  26 18.2  26 18.2  C 26 18.915  25.74541732788086 19.52708366394043  25.23625 20.03625  C 24.72708267211914 20.545416831970215  24.115 20.8  23.400000000000002 20.8  Z M 8 3  L 8 18  L 23 18  L 23 3  L 8 3  Z M 20.8 26  C 20.8 26  2.6 26  2.6 26  C 1.8849999999999998 26  1.272916584014894 25.74541658401489  0.7637499999999999 25.23625  C 0.2545834159851074 24.727083415985106  0 24.115  0 23.400000000000002  C 0 23.400000000000002  0 5.2  0 5.2  L 3 5.2  L 3 23  L 20.8 23  L 20.8 26  Z M 8 18.2  L 8 2.6  L 8 18.2  Z " fill-rule="nonzero" fill="#025ea2" stroke="none" transform="matrix(1 0 0 1 303 635 )" />
  </g>
</svg>