<?xml version="1.0" encoding="utf-8"?>
<svg version="1.1" xmlns:xlink="http://www.w3.org/1999/xlink" width="9px" height="15px" xmlns="http://www.w3.org/2000/svg">
  <g transform="matrix(1 0 0 1 -782 -593 )">
    <path d="M 3.3749999999999987 10.263157894736842  L 3.4499999999999997 10.263157894736842  C 3.4499999999999997 9.157894736842106  3.5249999999999995 8.447368421052632  3.75 7.973684210526316  C 3.9750000000000005 7.5  4.3500000000000005 7.026315789473684  4.875 6.473684210526315  C 5.3999999999999995 5.999999999999999  5.7749999999999995 5.605263157894737  6.074999999999999 5.2105263157894735  C 6.375 4.815789473684211  6.45 4.5  6.45 4.026315789473684  C 6.45 3.552631578947368  6.300000000000001 2.9999999999999996  5.925 2.684210526315789  C 5.550000000000001 2.3684210526315783  5.1000000000000005 2.131578947368421  4.5 2.131578947368421  C 3.8999999999999995 2.131578947368421  3.375 2.3684210526315783  3.0749999999999997 2.7631578947368416  C 2.7749999999999995 3.157894736842105  2.474999999999999 3.5526315789473677  2.3999999999999995 4.026315789473684  L 0.44999999999999973 3.1578947368421053  C 0.75 2.2894736842105265  1.1999999999999997 1.5789473684210527  1.875 0.9473684210526319  C 2.5500000000000003 0.31578947368421084  3.4499999999999997 0  4.5 0  C 5.550000000000001 0  6.824999999999999 0.39473684210526316  7.5 1.1842105263157894  C 8.174999999999999 1.9736842105263157  8.549999999999999 2.8421052631578942  8.549999999999999 3.9473684210526314  C 8.549999999999999 5.052631578947368  8.399999999999999 5.131578947368421  8.174999999999999 5.605263157894737  C 7.949999999999998 6.078947368421052  7.499999999999998 6.631578947368421  6.8999999999999995 7.184210526315789  C 6.299999999999999 7.8157894736842115  5.924999999999999 8.289473684210527  5.7749999999999995 8.605263157894736  C 5.625 8.921052631578949  5.549999999999999 9.473684210526315  5.549999999999999 10.263157894736842  L 3.3749999999999987 10.263157894736842  Z M 5.550000000000001 14.526315789473683  C 5.25 14.842105263157892  4.875 15  4.5 15  C 4.05 15  3.75 14.842105263157896  3.4499999999999997 14.526315789473683  C 3.1499999999999995 14.21052631578947  3 13.81578947368421  3 13.421052631578947  C 3 13.026315789473685  3.1499999999999995 12.631578947368421  3.4499999999999997 12.315789473684212  C 3.75 12.000000000000002  4.125 11.842105263157896  4.5 11.842105263157896  C 4.875 11.842105263157896  5.25 11.999999999999998  5.550000000000001 12.315789473684212  C 5.8500000000000005 12.631578947368423  6 13.026315789473685  6 13.421052631578947  C 6 13.81578947368421  5.8500000000000005 14.210526315789473  5.550000000000001 14.526315789473683  Z " fill-rule="nonzero" fill="#005ea2" stroke="none" transform="matrix(1 0 0 1 782 593 )" />
  </g>
</svg>