<?xml version="1.0" encoding="UTF-8"?>
<svg id="Layer_1" data-name="Layer 1" xmlns="http://www.w3.org/2000/svg" viewBox="0 0 50 40">
  <defs>
    <style>
      .cls-1 {
        fill: #7db955;
      }

      .cls-1, .cls-2 {
        stroke-width: 0px;
      }

      .cls-2 {
        fill: #646d7c;
      }
    </style>
  </defs>
  <path class="cls-2" d="M13.64,20.64V5.47h14.52v8.21h8.2v6.95h2.83v-9.49c0-.06,0-.12,0-.18h0c.05-.78-.23-1.57-.82-2.17l-5.01-5.01c-.52-.69-1.34-1.15-2.27-1.15H13.64c-1.18,0-2.18.72-2.61,1.74-.15.35-.22.73-.22,1.1v15.15h2.83Z"/>
  <g>
    <polygon class="cls-1" points="30.82 29.28 32.88 29.28 31.85 26.76 30.82 29.28"/>
    <path class="cls-1" d="M17.04,26.31h-1.32v4.68h1.32c1.4,0,2.34-.94,2.34-2.32v-.02c0-1.37-.94-2.34-2.34-2.34Z"/>
    <path class="cls-1" d="M43.84,20.6H6.16c-.74,0-1.34.6-1.34,1.34v13.36c0,.74.6,1.34,1.34,1.34h37.67c.74,0,1.34-.6,1.34-1.34v-13.36c0-.74-.6-1.34-1.34-1.34ZM21.16,28.65c0,2.18-1.69,3.88-4.12,3.88h-3.03v-7.76h3.03c2.44,0,4.12,1.67,4.12,3.86v.02ZM25.75,32.53h-1.71v-6.19h-2.36v-1.57h6.43v1.57h-2.36v6.19ZM34.2,32.53l-.71-1.74h-3.28l-.71,1.74h-1.74l3.33-7.82h1.57l3.33,7.82h-1.78Z"/>
  </g>
</svg>