<?xml version="1.0" encoding="UTF-8"?>
<svg id="Layer_1" data-name="Layer 1" xmlns="http://www.w3.org/2000/svg" viewBox="0 0 50 40">
  <defs>
    <style>
      .cls-1 {
        fill: #9f7d2f;
      }

      .cls-1, .cls-2 {
        stroke-width: 0px;
      }

      .cls-2 {
        fill: #646d7c;
      }
    </style>
  </defs>
  <path class="cls-2" d="M13.96,20.99V5.83h14.39v8.21h8.13v6.95h2.8v-9.49c0-.06,0-.12,0-.18h0c.05-.78-.23-1.57-.82-2.17l-4.96-5.01c-.51-.69-1.33-1.15-2.25-1.15H13.96c-1.17,0-2.16.72-2.59,1.74-.15.35-.22.73-.22,1.1v15.15h2.8Z"/>
  <g>
    <path class="cls-1" d="M20.86,26.64h-1.31v2.37h1.34c.85,0,1.34-.51,1.34-1.18v-.02c0-.76-.53-1.18-1.37-1.18Z"/>
    <path class="cls-1" d="M43.89,20.95H6.55c-.74,0-1.33.6-1.33,1.34v13.36c0,.74.6,1.34,1.33,1.34h37.34c.74,0,1.33-.6,1.33-1.34v-13.36c0-.74-.6-1.34-1.33-1.34ZM16.13,30.17c0,1.88-1.1,2.79-2.72,2.79-1.2,0-1.99-.53-2.52-1.16l1.07-1.2c.44.49.87.78,1.41.78.64,0,1.03-.39,1.03-1.29v-5h1.74v5.08ZM23.94,27.8c0,1.8-1.38,2.73-3.11,2.73h-1.29v2.33h-1.69v-7.76h3.14c1.83,0,2.94,1.1,2.94,2.68v.02ZM31.05,32.86h-5.86v-7.76h5.8v1.52h-4.12v1.57h3.63v1.52h-3.63v1.63h4.18v1.52ZM39.55,31.76c-.79.68-1.88,1.23-3.29,1.23-2.4,0-4.04-1.7-4.04-3.99v-.02c0-2.21,1.7-4.01,4.03-4.01,1.38,0,2.22.38,3.02,1.06l-1.07,1.3c-.59-.5-1.12-.79-2.01-.79-1.23,0-2.21,1.1-2.21,2.42v.02c0,1.42.97,2.46,2.33,2.46.62,0,1.16-.16,1.59-.47v-1.11h-1.7v-1.47h3.34v3.37Z"/>
  </g>
</svg>