<?xml version="1.0" encoding="UTF-8"?>
<svg id="Layer_1" data-name="Layer 1" xmlns="http://www.w3.org/2000/svg" viewBox="0 0 50 40">
  <defs>
    <style>
      .cls-1 {
        fill: #646d7c;
      }

      .cls-1, .cls-2 {
        stroke-width: 0px;
      }

      .cls-2 {
        fill: #8a1d1b;
      }
    </style>
  </defs>
  <g>
    <path class="cls-2" d="M27.42,25.99c-1.36,0-2.31,1.09-2.31,2.42v.02c0,1.33.97,2.44,2.33,2.44s2.31-1.09,2.31-2.42v-.02c0-1.33-.97-2.44-2.33-2.44Z"/>
    <path class="cls-2" d="M43.67,20.6H6.33c-.74,0-1.33.6-1.33,1.34v13.36c0,.74.6,1.34,1.33,1.34h37.34c.74,0,1.33-.6,1.33-1.34v-13.36c0-.74-.6-1.34-1.33-1.34ZM14.93,29.63c0,1.88-1.1,2.79-2.72,2.79-1.2,0-1.99-.53-2.52-1.16l1.07-1.2c.44.49.87.78,1.41.78.64,0,1.03-.39,1.03-1.29v-5h1.74v5.08ZM22.22,30.02c0,1.54-1.16,2.41-2.82,2.41-1.16,0-2.34-.41-3.26-1.24l1-1.21c.69.58,1.42.94,2.3.94.69,0,1.11-.28,1.11-.73v-.02c0-.43-.26-.65-1.55-.99-1.55-.4-2.55-.83-2.55-2.37v-.02c0-1.41,1.12-2.34,2.69-2.34,1.12,0,2.08.35,2.86.99l-.88,1.29c-.68-.48-1.35-.76-2-.76s-.99.3-.99.68v.02c0,.51.33.68,1.66,1.02,1.56.41,2.44.98,2.44,2.33v.02ZM31.52,28.43c0,2.21-1.72,4.01-4.1,4.01s-4.08-1.78-4.08-3.99v-.02c0-2.21,1.72-4.01,4.1-4.01s4.08,1.78,4.08,3.99v.02ZM39.86,32.31h-1.44l-3.72-4.93v4.93h-1.67v-7.76h1.56l3.6,4.78v-4.78h1.67v7.76Z"/>
  </g>
  <path class="cls-1" d="M13.74,20.64V5.47h14.39v8.21h8.13v6.95h2.8v-9.49c0-.06,0-.12,0-.18h0c.05-.78-.23-1.57-.82-2.17l-4.96-5.01c-.51-.69-1.33-1.15-2.25-1.15H13.74c-1.17,0-2.16.72-2.59,1.74-.15.35-.22.73-.22,1.1v15.15h2.8Z"/>
</svg>